<?xml version="1.0" encoding="utf-8"?>
<!-- Generator: Adobe Illustrator 24.1.2, SVG Export Plug-In . SVG Version: 6.00 Build 0)  -->
<svg version="1.1" id="Layer_1" xmlns="http://www.w3.org/2000/svg" xmlns:xlink="http://www.w3.org/1999/xlink" x="0px" y="0px"
	 viewBox="0 0 1980.5 222.4" style="enable-background:new 0 0 1980.5 222.4;" xml:space="preserve">
<style type="text/css">
	.st0{display:none;}
	.st1{display:inline;}
	.st2{opacity:0.8;}
	.st3{fill:#FFDF00;}
	.st4{display:inline;opacity:0.8;fill:#FFDF00;enable-background:new    ;}
	.st5{fill:#EDF5E1;}
	.st6{fill:#05386B;}
</style>
<g id="Layer_3" class="st0">
	<g class="st1">
		<g>
			<g class="st2">
				<path class="st3" d="M30-25.1c-0.4,0-0.8-0.1-1.1-0.4L14.7-39.7c-0.6-0.6-0.6-1.5,0-2.1L28.9-56c0.6-0.6,1.5-0.6,2.1,0
					l14.2,14.2c0.6,0.6,0.6,1.5,0,2.1L31.1-25.5C30.8-25.2,30.4-25.1,30-25.1z M17.9-40.8L30-28.7l12.1-12.1L30-52.9L17.9-40.8z"/>
			</g>
		</g>
		<g>
			<g class="st2">
				<path class="st3" d="M30,45.4c-0.4,0-0.8-0.1-1.1-0.4L14.7,30.8c-0.3-0.3-0.4-0.7-0.4-1.1s0.2-0.8,0.4-1.1l14.2-14.2
					c0.6-0.6,1.5-0.6,2.1,0l14.2,14.2c0.3,0.3,0.4,0.7,0.4,1.1s-0.2,0.8-0.4,1.1L31.1,45C30.8,45.2,30.4,45.4,30,45.4z M17.9,29.7
					L30,41.8l12.1-12.1L30,17.6L17.9,29.7z"/>
			</g>
		</g>
		<g>
			<g class="st2">
				<path class="st3" d="M30,115.9c-0.4,0-0.8-0.1-1.1-0.4l-14.2-14.2c-0.6-0.6-0.6-1.5,0-2.1L28.9,85c0.6-0.6,1.5-0.6,2.1,0
					l14.2,14.2c0.6,0.6,0.6,1.5,0,2.1L31,115.5C30.8,115.7,30.4,115.9,30,115.9z M17.9,100.2L30,112.3l12.1-12.1L30,88.1L17.9,100.2
					z"/>
			</g>
		</g>
		<g>
			<g class="st2">
				<path class="st3" d="M30,186.4c-0.4,0-0.8-0.1-1.1-0.4l-14.2-14.2c-0.3-0.3-0.4-0.7-0.4-1.1s0.2-0.8,0.4-1.1l14.2-14.2
					c0.6-0.6,1.5-0.6,2.1,0l14.2,14.2c0.3,0.3,0.4,0.7,0.4,1.1s-0.2,0.8-0.4,1.1L31,186C30.8,186.2,30.4,186.4,30,186.4z
					 M17.9,170.7L30,182.8l12.1-12.1L30,158.6L17.9,170.7z"/>
			</g>
		</g>
		<g>
			<g class="st2">
				<path class="st3" d="M30,256.9c-0.4,0-0.8-0.1-1.1-0.4l-14.2-14.2c-0.6-0.6-0.6-1.5,0-2.1L28.9,226c0.6-0.6,1.5-0.6,2.1,0
					l14.2,14.2c0.6,0.6,0.6,1.5,0,2.1L31,256.5C30.8,256.7,30.4,256.9,30,256.9z M17.9,241.2L30,253.3l12.1-12.1L30,229.1
					L17.9,241.2z"/>
			</g>
		</g>
	</g>
	<g class="st1">
		<g>
			<g class="st2">
				<path class="st3" d="M133-25.1c-0.4,0-0.8-0.1-1.1-0.4l-14.2-14.2c-0.6-0.6-0.6-1.5,0-2.1L131.9-56c0.6-0.6,1.5-0.6,2.1,0
					l14.2,14.2c0.6,0.6,0.6,1.5,0,2.1L134-25.5C133.8-25.2,133.4-25.1,133-25.1z M120.9-40.8L133-28.7l12.1-12.1L133-52.9
					L120.9-40.8z"/>
			</g>
		</g>
		<g>
			<g class="st2">
				<path class="st3" d="M133,45.4c-0.4,0-0.8-0.1-1.1-0.4l-14.2-14.2c-0.3-0.3-0.4-0.7-0.4-1.1s0.2-0.8,0.4-1.1l14.2-14.2
					c0.6-0.6,1.5-0.6,2.1,0l14.2,14.2c0.3,0.3,0.4,0.7,0.4,1.1s-0.2,0.8-0.4,1.1L134.1,45C133.8,45.2,133.4,45.4,133,45.4z
					 M120.9,29.7L133,41.8l12.1-12.1L133,17.6L120.9,29.7z"/>
			</g>
		</g>
		<g>
			<g class="st2">
				<path class="st3" d="M133,115.9c-0.4,0-0.8-0.1-1.1-0.4l-14.2-14.2c-0.6-0.6-0.6-1.5,0-2.1L131.9,85c0.6-0.6,1.5-0.6,2.1,0
					l14.2,14.2c0.6,0.6,0.6,1.5,0,2.1L134,115.5C133.8,115.7,133.4,115.9,133,115.9z M120.9,100.2l12.1,12.1l12.1-12.1L133,88.1
					L120.9,100.2z"/>
			</g>
		</g>
		<g>
			<g class="st2">
				<path class="st3" d="M133,186.4c-0.4,0-0.8-0.1-1.1-0.4l-14.2-14.2c-0.3-0.3-0.4-0.7-0.4-1.1s0.2-0.8,0.4-1.1l14.2-14.2
					c0.6-0.6,1.5-0.6,2.1,0l14.2,14.2c0.3,0.3,0.4,0.7,0.4,1.1s-0.2,0.8-0.4,1.1L134,186C133.8,186.2,133.4,186.4,133,186.4z
					 M120.9,170.7l12.1,12.1l12.1-12.1L133,158.6L120.9,170.7z"/>
			</g>
		</g>
		<g>
			<g class="st2">
				<path class="st3" d="M133,256.9c-0.4,0-0.8-0.1-1.1-0.4l-14.2-14.2c-0.6-0.6-0.6-1.5,0-2.1l14.2-14.2c0.6-0.6,1.5-0.6,2.1,0
					l14.2,14.2c0.6,0.6,0.6,1.5,0,2.1L134,256.5C133.8,256.7,133.4,256.9,133,256.9z M120.9,241.2l12.1,12.1l12.1-12.1L133,229.1
					L120.9,241.2z"/>
			</g>
		</g>
	</g>
	<g class="st1">
		<g>
			<g class="st2">
				<path class="st3" d="M236-25.1c-0.4,0-0.8-0.1-1.1-0.4l-14.2-14.2c-0.6-0.6-0.6-1.5,0-2.1L234.9-56c0.6-0.6,1.5-0.6,2.1,0
					l14.2,14.2c0.6,0.6,0.6,1.5,0,2.1L237-25.5C236.8-25.2,236.4-25.1,236-25.1z M223.9-40.8L236-28.7l12.1-12.1L236-52.9
					L223.9-40.8z"/>
			</g>
		</g>
		<g>
			<g class="st2">
				<path class="st3" d="M236,45.4c-0.4,0-0.8-0.1-1.1-0.4l-14.2-14.2c-0.3-0.3-0.4-0.7-0.4-1.1s0.2-0.8,0.4-1.1l14.2-14.2
					c0.6-0.6,1.5-0.6,2.1,0l14.2,14.2c0.3,0.3,0.4,0.7,0.4,1.1s-0.2,0.8-0.4,1.1L237.1,45C236.8,45.2,236.4,45.4,236,45.4z
					 M223.9,29.7L236,41.8l12.1-12.1L236,17.6L223.9,29.7z"/>
			</g>
		</g>
		<g>
			<g class="st2">
				<path class="st3" d="M236,115.9c-0.4,0-0.8-0.1-1.1-0.4l-14.2-14.2c-0.6-0.6-0.6-1.5,0-2.1L234.9,85c0.6-0.6,1.5-0.6,2.1,0
					l14.2,14.2c0.6,0.6,0.6,1.5,0,2.1L237,115.5C236.8,115.7,236.4,115.9,236,115.9z M223.9,100.2l12.1,12.1l12.1-12.1L236,88.1
					L223.9,100.2z"/>
			</g>
		</g>
		<g>
			<g class="st2">
				<path class="st3" d="M236,186.4c-0.4,0-0.8-0.1-1.1-0.4l-14.2-14.2c-0.3-0.3-0.4-0.7-0.4-1.1s0.2-0.8,0.4-1.1l14.2-14.2
					c0.6-0.6,1.5-0.6,2.1,0l14.2,14.2c0.3,0.3,0.4,0.7,0.4,1.1s-0.2,0.8-0.4,1.1L237,186C236.8,186.2,236.4,186.4,236,186.4z
					 M223.9,170.7l12.1,12.1l12.1-12.1L236,158.6L223.9,170.7z"/>
			</g>
		</g>
		<g>
			<g class="st2">
				<path class="st3" d="M236,256.9c-0.4,0-0.8-0.1-1.1-0.4l-14.2-14.2c-0.6-0.6-0.6-1.5,0-2.1l14.2-14.2c0.6-0.6,1.5-0.6,2.1,0
					l14.2,14.2c0.6,0.6,0.6,1.5,0,2.1L237,256.5C236.8,256.7,236.4,256.9,236,256.9z M223.9,241.2l12.1,12.1l12.1-12.1L236,229.1
					L223.9,241.2z"/>
			</g>
		</g>
	</g>
	<g class="st1">
		<g>
			<g class="st2">
				<path class="st3" d="M339-25.1c-0.4,0-0.8-0.1-1.1-0.4l-14.2-14.2c-0.6-0.6-0.6-1.5,0-2.1L337.9-56c0.6-0.6,1.5-0.6,2.1,0
					l14.2,14.2c0.6,0.6,0.6,1.5,0,2.1L340-25.5C339.8-25.2,339.4-25.1,339-25.1z M326.9-40.8L339-28.7l12.1-12.1L339-52.9
					L326.9-40.8z"/>
			</g>
		</g>
		<g>
			<g class="st2">
				<path class="st3" d="M339,45.4c-0.4,0-0.8-0.1-1.1-0.4l-14.2-14.2c-0.3-0.3-0.4-0.7-0.4-1.1s0.2-0.8,0.4-1.1l14.2-14.2
					c0.6-0.6,1.5-0.6,2.1,0l14.2,14.2c0.3,0.3,0.4,0.7,0.4,1.1s-0.2,0.8-0.4,1.1L340.1,45C339.8,45.2,339.4,45.4,339,45.4z
					 M326.9,29.7L339,41.8l12.1-12.1L339,17.6L326.9,29.7z"/>
			</g>
		</g>
		<g>
			<g class="st2">
				<path class="st3" d="M339,115.9c-0.4,0-0.8-0.1-1.1-0.4l-14.2-14.2c-0.6-0.6-0.6-1.5,0-2.1L337.9,85c0.6-0.6,1.5-0.6,2.1,0
					l14.2,14.2c0.6,0.6,0.6,1.5,0,2.1L340,115.5C339.8,115.7,339.4,115.9,339,115.9z M326.9,100.2l12.1,12.1l12.1-12.1L339,88.1
					L326.9,100.2z"/>
			</g>
		</g>
		<g>
			<g class="st2">
				<path class="st3" d="M339,186.4c-0.4,0-0.8-0.1-1.1-0.4l-14.2-14.2c-0.3-0.3-0.4-0.7-0.4-1.1s0.2-0.8,0.4-1.1l14.2-14.2
					c0.6-0.6,1.5-0.6,2.1,0l14.2,14.2c0.3,0.3,0.4,0.7,0.4,1.1s-0.2,0.8-0.4,1.1L340,186C339.8,186.2,339.4,186.4,339,186.4z
					 M326.9,170.7l12.1,12.1l12.1-12.1L339,158.6L326.9,170.7z"/>
			</g>
		</g>
		<g>
			<g class="st2">
				<path class="st3" d="M339,256.9c-0.4,0-0.8-0.1-1.1-0.4l-14.2-14.2c-0.6-0.6-0.6-1.5,0-2.1l14.2-14.2c0.6-0.6,1.5-0.6,2.1,0
					l14.2,14.2c0.6,0.6,0.6,1.5,0,2.1L340,256.5C339.8,256.7,339.4,256.9,339,256.9z M326.9,241.2l12.1,12.1l12.1-12.1L339,229.1
					L326.9,241.2z"/>
			</g>
		</g>
	</g>
	<path class="st4" d="M447.9-34.7l-5.9,5.9l-12.1-12.1l12.1-12l5.9,5.9v-4.2l-4.9-4.9c-0.6-0.6-1.5-0.6-2.1,0l-14.2,14.2
		c-0.6,0.6-0.6,1.5,0,2.1l14.2,14.2c0.3,0.3,0.7,0.4,1.1,0.4s0.8-0.1,1.1-0.4l4.9-4.9v-4.2H447.9z"/>
	<path class="st4" d="M447.9,35.8l-5.9,5.9l-12.1-12.1l12.1-12l5.9,5.9v-4.2l-4.9-4.9c-0.6-0.6-1.5-0.6-2.1,0l-14.2,14.2
		c-0.3,0.3-0.4,0.7-0.4,1.1s0.2,0.8,0.4,1.1L440.9,45c0.3,0.3,0.7,0.4,1.1,0.4s0.8-0.1,1.1-0.4l4.9-4.9v-4.3H447.9z"/>
	<path class="st4" d="M447.9,106.3l-5.9,5.9l-12.1-12.1l12.1-12l5.9,5.9v-4.2l-4.9-4.9c-0.6-0.6-1.5-0.6-2.1,0l-14.2,14.2
		c-0.6,0.6-0.6,1.5,0,2.1l14.2,14.2c0.3,0.3,0.7,0.4,1.1,0.4s0.8-0.1,1.1-0.4l4.9-4.9v-4.2H447.9z"/>
	<path class="st4" d="M447.9,176.8l-5.9,5.9l-12.1-12.1l12.1-12.1l5.9,5.9v-4.2l-4.9-4.9c-0.6-0.6-1.5-0.6-2.1,0l-14.2,14.2
		c-0.3,0.3-0.4,0.7-0.4,1.1s0.2,0.8,0.4,1.1l14.2,14.2c0.3,0.3,0.7,0.4,1.1,0.4s0.8-0.1,1.1-0.4l4.9-4.9v-4.2H447.9z"/>
	<path class="st4" d="M447.9,247.3l-5.9,5.9l-12.1-12.1L442,229l5.9,5.9v-4.2l-4.9-4.9c-0.6-0.6-1.5-0.6-2.1,0L426.7,240
		c-0.6,0.6-0.6,1.5,0,2.1l14.2,14.2c0.3,0.3,0.7,0.4,1.1,0.4s0.8-0.1,1.1-0.4l4.9-4.9v-4.1L447.9,247.3L447.9,247.3z"/>
</g>
<path class="st5" d="M196.3,203.1c29.8-14.3,63.6-30.5,63.6-64.5s-33.8-50.2-63.6-64.5C169.4,61,144,48.8,144,27.2
	c0-21.6,25.4-33.8,52.4-46.7c22.1-10.6,46.4-22.3,57.5-41.5h-25.6c-9.9,9-25,16.2-40.7,23.7C157.8-23,124-6.8,124,27.2
	s33.8,50.2,63.6,64.5c26.9,12.9,52.4,25.1,52.4,46.7c0,21.7-25.4,33.9-52.4,46.8c-29.8,14.3-63.6,30.5-63.6,64.5
	s33.8,50.2,63.6,64.5c11.2,5.4,22.2,10.6,31.1,16.5h30.1c-12.4-15-33.3-25-52.5-34.2c-26.9-12.9-52.4-25.1-52.4-46.7
	C143.9,228.2,169.3,216,196.3,203.1z"/>
<path class="st6" d="M110,190c-15.8,7.6-32.1,15.4-45.6,26.2C44.9,231.8,35,250.8,35,272.6s9.9,40.9,29.4,56.5c0.6,0.5,1.3,1,2,1.5
	h119.1c-1.2-1.1-2.5-2.2-3.8-3.2c-13.6-10.8-29.9-18.6-45.6-26.2c-17.3-8.3-41-19.6-41-28.6c0-8.9,23.7-20.3,41-28.5
	c15.8-7.6,32.1-15.4,45.6-26.2c19.5-15.6,29.4-34.6,29.4-56.5s-9.9-40.9-29.4-56.5c-13.7-10.8-30-18.6-45.7-26.1
	c-17.3-8.3-41-19.6-41-28.6c0-8.9,23.7-20.3,41-28.6c15.8-7.6,32.1-15.4,45.6-26.2C201.1-20.1,211-39.1,211-61h-60
	c0,8.9-23.7,20.3-41,28.6C94.3-24.9,78-17.1,64.4-6.2C44.9,9.3,35,28.3,35,50.2s9.9,40.9,29.4,56.5c13.5,10.8,29.9,18.7,45.6,26.2
	c17.3,8.3,41,19.6,41,28.6C151,170.4,127.3,181.7,110,190z"/>
</svg>
