<?xml version="1.0" encoding="utf-8"?>
<!-- Generator: Adobe Illustrator 24.1.2, SVG Export Plug-In . SVG Version: 6.00 Build 0)  -->
<svg version="1.1" id="Layer_1" xmlns="http://www.w3.org/2000/svg" xmlns:xlink="http://www.w3.org/1999/xlink" x="0px" y="0px"
	 viewBox="0 0 1980.5 222.4" style="enable-background:new 0 0 1980.5 222.4;" xml:space="preserve">
<style type="text/css">
	.st0{fill:#05386B;}
	.st1{fill:#EDF5E1;}
</style>
<path class="st0" d="M1875.8,203.1c29.8-14.3,63.6-30.5,63.6-64.5s-33.8-50.2-63.6-64.5c-26.9-13.1-52.3-25.3-52.3-46.9
	c0-21.6,25.4-33.8,52.4-46.7c22.1-10.6,46.4-22.3,57.5-41.5h-25.6c-9.9,9-25,16.2-40.7,23.7c-29.8,14.3-63.6,30.5-63.6,64.5
	s33.8,50.2,63.6,64.5c26.9,12.9,52.4,25.1,52.4,46.7c0,21.7-25.4,33.9-52.4,46.8c-29.8,14.3-63.6,30.5-63.6,64.5
	s33.8,50.2,63.6,64.5c11.2,5.4,22.2,10.6,31.1,16.5h30.1c-12.4-15-33.3-25-52.5-34.2c-26.9-12.9-52.4-25.1-52.4-46.7
	C1823.4,228.2,1848.8,216,1875.8,203.1z"/>
<path class="st1" d="M1789.5,190c-15.8,7.6-32.1,15.4-45.6,26.2c-19.5,15.6-29.4,34.6-29.4,56.4s9.9,40.9,29.4,56.5
	c0.6,0.5,1.3,1,2,1.5H1865c-1.2-1.1-2.5-2.2-3.8-3.2c-13.6-10.8-29.9-18.6-45.6-26.2c-17.3-8.3-41-19.6-41-28.6
	c0-8.9,23.7-20.3,41-28.5c15.8-7.6,32.1-15.4,45.6-26.2c19.5-15.6,29.4-34.6,29.4-56.5s-9.9-40.9-29.4-56.5
	c-13.7-10.8-30-18.6-45.7-26.1c-17.3-8.3-41-19.6-41-28.6c0-8.9,23.7-20.3,41-28.6c15.8-7.6,32.1-15.4,45.6-26.2
	c19.5-15.5,29.4-34.5,29.4-56.4h-60c0,8.9-23.7,20.3-41,28.6c-15.7,7.5-32,15.3-45.6,26.2c-19.5,15.5-29.4,34.5-29.4,56.4
	s9.9,40.9,29.4,56.5c13.5,10.8,29.9,18.7,45.6,26.2c17.3,8.3,41,19.6,41,28.6C1830.5,170.4,1806.8,181.7,1789.5,190z"/>
</svg>
